<svg xmlns="http://www.w3.org/2000/svg" width="1280" height="900" viewBox="0 0 1280 900" font-family="-apple-system, 'Segoe UI', 'PingFang SC', sans-serif">
  <defs>
    <marker id="arrow" markerWidth="10" markerHeight="10" refX="8" refY="3" orient="auto" markerUnits="strokeWidth">
      <path d="M0,0 L8,3 L0,6 Z" fill="#475569"/>
    </marker>
    <marker id="arrowBlue" markerWidth="10" markerHeight="10" refX="8" refY="3" orient="auto" markerUnits="strokeWidth">
      <path d="M0,0 L8,3 L0,6 Z" fill="#2563eb"/>
    </marker>
    <marker id="arrowGreen" markerWidth="10" markerHeight="10" refX="8" refY="3" orient="auto" markerUnits="strokeWidth">
      <path d="M0,0 L8,3 L0,6 Z" fill="#059669"/>
    </marker>
  </defs>

  <rect width="1280" height="900" fill="#F8FAFC"/>
  <text x="640" y="40" text-anchor="middle" font-size="24" font-weight="700" fill="#0F172A">AI Hot Radar — 模块依赖拓扑图</text>
  <text x="640" y="64" text-anchor="middle" font-size="13" fill="#64748B">前后端全景 · 节点标注核心职责 · 箭头方向 = 依赖方向（A→B 表示 A 依赖 B）</text>

  <!-- ============ FRONTEND CONTAINER ============ -->
  <g>
    <rect x="40" y="90" width="540" height="600" rx="10" fill="#EFF6FF" stroke="#93C5FD" stroke-width="1.5"/>
    <rect x="40" y="90" width="56" height="600" rx="10" fill="#2563EB"/>
    <text x="68" y="390" text-anchor="middle" font-size="15" font-weight="700" fill="#FFFFFF" transform="rotate(-90 68 390)">FRONTEND · React 19 + Vite</text>

    <!-- App.tsx entry -->
    <g>
      <rect x="120" y="115" width="430" height="46" rx="6" fill="#1D4ED8"/>
      <text x="335" y="138" text-anchor="middle" font-size="12" font-weight="700" fill="#FFFFFF">App.tsx · 入口</text>
      <text x="335" y="153" text-anchor="middle" font-size="9" fill="#DBEAFE">挂载布局 + Tab 路由，分发到各业务组件</text>
    </g>

    <!-- Components layer -->
    <text x="120" y="190" font-size="11" font-weight="700" fill="#1E40AF">组件层（UI）</text>
    <g>
      <rect x="120" y="198" width="135" height="44" rx="6" fill="#FFFFFF" stroke="#93C5FD"/>
      <text x="187" y="219" text-anchor="middle" font-size="11" font-weight="700" fill="#0F172A">hotspot</text>
      <text x="187" y="233" text-anchor="middle" font-size="8.5" fill="#475569">热点雷达流</text>
    </g>
    <g>
      <rect x="265" y="198" width="135" height="44" rx="6" fill="#FFFFFF" stroke="#93C5FD"/>
      <text x="332" y="219" text-anchor="middle" font-size="11" font-weight="700" fill="#0F172A">curated</text>
      <text x="332" y="233" text-anchor="middle" font-size="8.5" fill="#475569">精选信息流</text>
    </g>
    <g>
      <rect x="410" y="198" width="140" height="44" rx="6" fill="#FFFFFF" stroke="#93C5FD"/>
      <text x="480" y="219" text-anchor="middle" font-size="11" font-weight="700" fill="#0F172A">digest</text>
      <text x="480" y="233" text-anchor="middle" font-size="8.5" fill="#475569">AI 日报视图</text>
    </g>
    <g>
      <rect x="120" y="250" width="135" height="44" rx="6" fill="#FFFFFF" stroke="#60A5FA" stroke-width="2"/>
      <text x="187" y="271" text-anchor="middle" font-size="11" font-weight="700" fill="#0F172A">keywords</text>
      <text x="187" y="285" text-anchor="middle" font-size="8.5" fill="#475569">关注 · 依赖最重</text>
    </g>
    <g>
      <rect x="265" y="250" width="135" height="44" rx="6" fill="#FFFFFF" stroke="#93C5FD"/>
      <text x="332" y="271" text-anchor="middle" font-size="11" font-weight="700" fill="#0F172A">agent</text>
      <text x="332" y="285" text-anchor="middle" font-size="8.5" fill="#475569">接入文档页</text>
    </g>
    <g>
      <rect x="410" y="250" width="140" height="44" rx="6" fill="#FFFFFF" stroke="#93C5FD"/>
      <text x="480" y="271" text-anchor="middle" font-size="11" font-weight="700" fill="#0F172A">layout / common</text>
      <text x="480" y="285" text-anchor="middle" font-size="8.5" fill="#475569">布局与公共组件</text>
    </g>

    <!-- Service layer (frontend) -->
    <text x="120" y="330" font-size="11" font-weight="700" fill="#1E40AF">前端服务层（Service）</text>
    <g>
      <rect x="120" y="338" width="135" height="50" rx="6" fill="#DBEAFE" stroke="#3B82F6" stroke-width="2"/>
      <text x="187" y="360" text-anchor="middle" font-size="11" font-weight="700" fill="#0F172A">services/api</text>
      <text x="187" y="375" text-anchor="middle" font-size="8.5" fill="#475569">REST 封装 · 地基</text>
    </g>
    <g>
      <rect x="265" y="338" width="135" height="50" rx="6" fill="#FFFFFF" stroke="#93C5FD"/>
      <text x="332" y="360" text-anchor="middle" font-size="11" font-weight="700" fill="#0F172A">services/socket</text>
      <text x="332" y="375" text-anchor="middle" font-size="8.5" fill="#475569">WebSocket 客户端</text>
    </g>
    <g>
      <rect x="410" y="338" width="140" height="50" rx="6" fill="#FFFFFF" stroke="#93C5FD"/>
      <text x="480" y="360" text-anchor="middle" font-size="11" font-weight="700" fill="#0F172A">services/digestJobs</text>
      <text x="480" y="375" text-anchor="middle" font-size="8.5" fill="#475569">日报生成轮询</text>
    </g>

    <!-- shared -->
    <text x="120" y="430" font-size="11" font-weight="700" fill="#1E40AF">共享层</text>
    <g>
      <rect x="120" y="438" width="200" height="44" rx="6" fill="#F1F5F9" stroke="#CBD5E1"/>
      <text x="220" y="459" text-anchor="middle" font-size="11" font-weight="700" fill="#0F172A">hooks / lib / utils</text>
      <text x="220" y="473" text-anchor="middle" font-size="8.5" fill="#475569">useTheme · 工具函数 · 时间格式化</text>
    </g>
    <g>
      <rect x="330" y="438" width="220" height="44" rx="6" fill="#F1F5F9" stroke="#CBD5E1"/>
      <text x="440" y="459" text-anchor="middle" font-size="11" font-weight="700" fill="#0F172A">types</text>
      <text x="440" y="473" text-anchor="middle" font-size="8.5" fill="#475569">Hotspot / Digest / Keyword 类型定义</text>
    </g>

    <!-- internal arrows: components -> api -->
    <path d="M187,242 L187,338" stroke="#2563eb" stroke-width="1.5" fill="none" marker-end="url(#arrowBlue)"/>
    <path d="M332,294 C332,315 280,320 230,338" stroke="#2563eb" stroke-width="1.2" fill="none" marker-end="url(#arrowBlue)" opacity="0.6"/>
    <path d="M480,242 C480,290 250,300 200,338" stroke="#2563eb" stroke-width="1.2" fill="none" marker-end="url(#arrowBlue)" opacity="0.5"/>
    <path d="M480,294 L480,338" stroke="#2563eb" stroke-width="1.2" fill="none" marker-end="url(#arrowBlue)" opacity="0.6"/>
    <!-- keywords -> socket -->
    <path d="M255,272 C290,300 310,315 332,338" stroke="#2563eb" stroke-width="1.2" fill="none" marker-end="url(#arrowBlue)" opacity="0.6"/>
    <!-- App -> components -->
    <path d="M335,161 L300,196" stroke="#475569" stroke-width="1" fill="none" marker-end="url(#arrow)" opacity="0.4"/>
  </g>

  <!-- ============ BACKEND CONTAINER ============ -->
  <g>
    <rect x="620" y="90" width="620" height="600" rx="10" fill="#ECFDF5" stroke="#6EE7B7" stroke-width="1.5"/>
    <rect x="620" y="90" width="56" height="600" rx="10" fill="#059669"/>
    <text x="648" y="390" text-anchor="middle" font-size="15" font-weight="700" fill="#FFFFFF" transform="rotate(-90 648 390)">BACKEND · NestJS 11 + Prisma</text>

    <!-- Controllers / API endpoints -->
    <text x="700" y="125" font-size="11" font-weight="700" fill="#047857">控制器层（REST Controllers · 10 个端点模块）</text>
    <g>
      <rect x="700" y="132" width="120" height="40" rx="6" fill="#FFFFFF" stroke="#6EE7B7"/>
      <text x="760" y="151" text-anchor="middle" font-size="10.5" font-weight="700" fill="#0F172A">hotspots</text>
      <text x="760" y="164" text-anchor="middle" font-size="8" fill="#475569">热点 CRUD</text>
    </g>
    <g>
      <rect x="828" y="132" width="120" height="40" rx="6" fill="#FFFFFF" stroke="#6EE7B7"/>
      <text x="888" y="151" text-anchor="middle" font-size="10.5" font-weight="700" fill="#0F172A">keywords</text>
      <text x="888" y="164" text-anchor="middle" font-size="8" fill="#475569">关键词管理</text>
    </g>
    <g>
      <rect x="956" y="132" width="120" height="40" rx="6" fill="#FFFFFF" stroke="#6EE7B7"/>
      <text x="1016" y="151" text-anchor="middle" font-size="10.5" font-weight="700" fill="#0F172A">curated</text>
      <text x="1016" y="164" text-anchor="middle" font-size="8" fill="#475569">精选查询</text>
    </g>
    <g>
      <rect x="1084" y="132" width="120" height="40" rx="6" fill="#FFFFFF" stroke="#6EE7B7"/>
      <text x="1144" y="151" text-anchor="middle" font-size="10.5" font-weight="700" fill="#0F172A">digest</text>
      <text x="1144" y="164" text-anchor="middle" font-size="8" fill="#475569">日报生成</text>
    </g>
    <g>
      <rect x="700" y="178" width="120" height="40" rx="6" fill="#FFFFFF" stroke="#6EE7B7"/>
      <text x="760" y="197" text-anchor="middle" font-size="10.5" font-weight="700" fill="#0F172A">agent</text>
      <text x="760" y="210" text-anchor="middle" font-size="8" fill="#475569">RSS/API/Skill</text>
    </g>
    <g>
      <rect x="828" y="178" width="120" height="40" rx="6" fill="#FFFFFF" stroke="#6EE7B7"/>
      <text x="888" y="197" text-anchor="middle" font-size="10.5" font-weight="700" fill="#0F172A">chat</text>
      <text x="888" y="210" text-anchor="middle" font-size="8" fill="#475569">对话接口</text>
    </g>
    <g>
      <rect x="956" y="178" width="120" height="40" rx="6" fill="#FFFFFF" stroke="#6EE7B7"/>
      <text x="1016" y="197" text-anchor="middle" font-size="10.5" font-weight="700" fill="#0F172A">notifications</text>
      <text x="1016" y="210" text-anchor="middle" font-size="8" fill="#475569">通知</text>
    </g>
    <g>
      <rect x="1084" y="178" width="120" height="40" rx="6" fill="#FFFFFF" stroke="#6EE7B7"/>
      <text x="1144" y="197" text-anchor="middle" font-size="10.5" font-weight="700" fill="#0F172A">settings</text>
      <text x="1144" y="210" text-anchor="middle" font-size="8" fill="#475569">配置</text>
    </g>

    <!-- Scheduler (orchestrator) -->
    <text x="700" y="252" font-size="11" font-weight="700" fill="#047857">编排层（出度最大）</text>
    <g>
      <rect x="700" y="260" width="240" height="58" rx="6" fill="#FEF3C7" stroke="#F59E0B" stroke-width="2.5"/>
      <text x="820" y="283" text-anchor="middle" font-size="12" font-weight="700" fill="#0F172A">scheduler · 定时任务编排</text>
      <text x="820" y="299" text-anchor="middle" font-size="8.5" fill="#475569">每 10 分钟抓取 → 评分 → 入库 → 推送</text>
      <text x="820" y="311" text-anchor="middle" font-size="8" fill="#B45309">出度 8 services + utils + gateway</text>
    </g>
    <g>
      <rect x="956" y="260" width="120" height="58" rx="6" fill="#FFFFFF" stroke="#6EE7B7"/>
      <text x="1016" y="285" text-anchor="middle" font-size="10.5" font-weight="700" fill="#0F172A">entities</text>
      <text x="1016" y="299" text-anchor="middle" font-size="8" fill="#475569">关键词聚合</text>
      <text x="1016" y="311" text-anchor="middle" font-size="8" fill="#475569">被 keywords 依赖</text>
    </g>
    <g>
      <rect x="1084" y="260" width="120" height="58" rx="6" fill="#FFFFFF" stroke="#6EE7B7"/>
      <text x="1144" y="285" text-anchor="middle" font-size="10.5" font-weight="700" fill="#0F172A">gateway</text>
      <text x="1144" y="299" text-anchor="middle" font-size="8" fill="#475569">Socket.io</text>
      <text x="1144" y="311" text-anchor="middle" font-size="8" fill="#475569">实时推送</text>
    </g>

    <!-- Services layer -->
    <text x="700" y="356" font-size="11" font-weight="700" fill="#047857">服务层（Services · 业务逻辑）</text>
    <g>
      <rect x="700" y="364" width="115" height="48" rx="6" fill="#D1FAE5" stroke="#10B981" stroke-width="2"/>
      <text x="757" y="385" text-anchor="middle" font-size="10.5" font-weight="700" fill="#0F172A">scoring</text>
      <text x="757" y="399" text-anchor="middle" font-size="8" fill="#475569">两阶段 AI 评分</text>
    </g>
    <g>
      <rect x="823" y="364" width="115" height="48" rx="6" fill="#D1FAE5" stroke="#10B981" stroke-width="2"/>
      <text x="880" y="385" text-anchor="middle" font-size="10.5" font-weight="700" fill="#0F172A">ai</text>
      <text x="880" y="399" text-anchor="middle" font-size="8" fill="#475569">LLM 调用核心</text>
    </g>
    <g>
      <rect x="946" y="364" width="115" height="48" rx="6" fill="#FFFFFF" stroke="#6EE7B7"/>
      <text x="1003" y="385" text-anchor="middle" font-size="10.5" font-weight="700" fill="#0F172A">search</text>
      <text x="1003" y="399" text-anchor="middle" font-size="8" fill="#475569">Bing/HN</text>
    </g>
    <g>
      <rect x="1069" y="364" width="115" height="48" rx="6" fill="#FFFFFF" stroke="#6EE7B7"/>
      <text x="1126" y="385" text-anchor="middle" font-size="10.5" font-weight="700" fill="#0F172A">china-search</text>
      <text x="1126" y="399" text-anchor="middle" font-size="8" fill="#475569">Bilibili</text>
    </g>
    <g>
      <rect x="700" y="418" width="115" height="48" rx="6" fill="#FFFFFF" stroke="#6EE7B7"/>
      <text x="757" y="439" text-anchor="middle" font-size="10.5" font-weight="700" fill="#0F172A">rss</text>
      <text x="757" y="453" text-anchor="middle" font-size="8" fill="#475569">RSS 抓取</text>
    </g>
    <g>
      <rect x="823" y="418" width="115" height="48" rx="6" fill="#FFFFFF" stroke="#6EE7B7"/>
      <text x="880" y="439" text-anchor="middle" font-size="10.5" font-weight="700" fill="#0F172A">twitter</text>
      <text x="880" y="453" text-anchor="middle" font-size="8" fill="#475569">X 抓取</text>
    </g>
    <g>
      <rect x="946" y="418" width="115" height="48" rx="6" fill="#FFFFFF" stroke="#6EE7B7"/>
      <text x="1003" y="439" text-anchor="middle" font-size="10.5" font-weight="700" fill="#0F172A">email</text>
      <text x="1003" y="453" text-anchor="middle" font-size="8" fill="#475569">邮件通知</text>
    </g>
    <g>
      <rect x="1069" y="418" width="115" height="48" rx="6" fill="#F1F5F9" stroke="#CBD5E1"/>
      <text x="1126" y="439" text-anchor="middle" font-size="10.5" font-weight="700" fill="#0F172A">rss-feeds</text>
      <text x="1126" y="453" text-anchor="middle" font-size="8" fill="#475569">信源配置</text>
    </g>

    <!-- utils + prisma (foundation) -->
    <text x="700" y="508" font-size="11" font-weight="700" fill="#047857">基础层</text>
    <g>
      <rect x="700" y="516" width="220" height="46" rx="6" fill="#F1F5F9" stroke="#CBD5E1"/>
      <text x="810" y="537" text-anchor="middle" font-size="10.5" font-weight="700" fill="#0F172A">utils</text>
      <text x="810" y="551" text-anchor="middle" font-size="8" fill="#475569">authority · title-cluster · keyword-prefilter</text>
    </g>
    <g>
      <rect x="940" y="516" width="244" height="46" rx="8" fill="#FECACA" stroke="#DC2626" stroke-width="2.5"/>
      <text x="1062" y="537" text-anchor="middle" font-size="12" font-weight="700" fill="#0F172A">prisma · SQLite ORM</text>
      <text x="1062" y="551" text-anchor="middle" font-size="8.5" fill="#991B1B">⚠ 绝对地基 — 被 10 个模块依赖</text>
    </g>

    <!-- backend internal arrows -->
    <!-- controllers -> scheduler/services (sample) -->
    <path d="M760,172 C760,230 790,245 800,258" stroke="#059669" stroke-width="1" fill="none" marker-end="url(#arrowGreen)" opacity="0.4"/>
    <!-- scheduler -> services -->
    <path d="M790,318 C780,335 770,348 760,362" stroke="#059669" stroke-width="1.5" fill="none" marker-end="url(#arrowGreen)"/>
    <path d="M830,318 C850,335 865,348 878,362" stroke="#059669" stroke-width="1.5" fill="none" marker-end="url(#arrowGreen)"/>
    <path d="M860,318 C920,338 970,350 1000,362" stroke="#059669" stroke-width="1.2" fill="none" marker-end="url(#arrowGreen)" opacity="0.6"/>
    <path d="M900,318 C1010,335 1080,350 1120,362" stroke="#059669" stroke-width="1.2" fill="none" marker-end="url(#arrowGreen)" opacity="0.5"/>
    <!-- scheduler -> gateway -->
    <path d="M940,288 L1084,288" stroke="#059669" stroke-width="1.2" fill="none" marker-end="url(#arrowGreen)" opacity="0.6"/>
    <!-- scoring -> ai -->
    <path d="M815,388 L823,388" stroke="#059669" stroke-width="1.5" fill="none" marker-end="url(#arrowGreen)"/>
    <!-- services -> utils -->
    <path d="M757,412 C757,460 770,490 790,514" stroke="#059669" stroke-width="1.2" fill="none" marker-end="url(#arrowGreen)" opacity="0.6"/>
    <!-- services -> prisma (many) -->
    <path d="M880,412 C950,460 1000,490 1040,514" stroke="#DC2626" stroke-width="1.2" fill="none" marker-end="url(#arrowGreen)" opacity="0.4" stroke-dasharray="0"/>
    <!-- keywords -> entities -->
    <path d="M888,172 C950,210 990,230 1016,258" stroke="#059669" stroke-width="1.2" fill="none" marker-end="url(#arrowGreen)" opacity="0.5"/>
    <!-- entities -> prisma -->
    <path d="M1016,318 C1016,420 1040,480 1055,514" stroke="#059669" stroke-width="1" fill="none" marker-end="url(#arrowGreen)" opacity="0.4"/>
    <!-- controllers -> prisma direct -->
    <path d="M1144,218 C1144,360 1130,480 1110,514" stroke="#059669" stroke-width="1" fill="none" marker-end="url(#arrowGreen)" opacity="0.3"/>
  </g>

  <!-- ============ CROSS-TIER LINK ============ -->
  <path d="M555,363 C590,363 595,150 698,150" stroke="#7C3AED" stroke-width="2" fill="none" marker-end="url(#arrow)" stroke-dasharray="6 4"/>
  <text x="600" y="240" font-size="9.5" font-weight="700" fill="#7C3AED">HTTP REST</text>
  <text x="600" y="252" font-size="8" fill="#7C3AED">api → controllers</text>

  <path d="M400,363 C500,420 560,360 590,310 C620,265 660,290 698,290" stroke="#7C3AED" stroke-width="2" fill="none" marker-end="url(#arrow)" stroke-dasharray="6 4" opacity="0.85"/>
  <text x="600" y="335" font-size="9.5" font-weight="700" fill="#7C3AED">WebSocket</text>
  <text x="600" y="347" font-size="8" fill="#7C3AED">socket ↔ gateway</text>

  <!-- ============ STATS / LEGEND ============ -->
  <g>
    <rect x="40" y="710" width="1200" height="150" rx="10" fill="#FFFFFF" stroke="#E2E8F0"/>
    <text x="60" y="738" font-size="14" font-weight="700" fill="#0F172A">统计概要 &amp; 关键洞察</text>

    <text x="60" y="765" font-size="11" font-weight="700" fill="#DC2626">✓ 无循环依赖</text>
    <text x="170" y="765" font-size="10" fill="#475569">前后端均为干净的单向分层架构，未检测到双向边或最小环（循环引用计数 = 0）。</text>

    <text x="60" y="792" font-size="11" font-weight="700" fill="#991B1B">🔴 最高爆炸半径（Blast Radius）</text>
    <text x="290" y="792" font-size="10" fill="#475569">prisma 被 10 个后端模块依赖 — 改 schema 牵连全局，是最高危地基。</text>

    <text x="60" y="816" font-size="11" font-weight="700" fill="#B45309">🟡 最大出度</text>
    <text x="170" y="816" font-size="10" fill="#475569">scheduler 编排 8 个 service + utils + gateway — 抓取主流程的总指挥，逻辑最集中。</text>

    <text x="60" y="840" font-size="11" font-weight="700" fill="#2563EB">🔵 前端核心</text>
    <text x="170" y="840" font-size="10" fill="#475569">services/api 是所有业务组件的数据地基；keywords 组件依赖最重（api×6 + socket）。</text>

    <!-- legend swatches -->
    <rect x="720" y="755" width="16" height="10" rx="2" fill="#2563EB"/>
    <text x="742" y="764" font-size="9" fill="#475569">前端依赖</text>
    <rect x="820" y="755" width="16" height="10" rx="2" fill="#059669"/>
    <text x="842" y="764" font-size="9" fill="#475569">后端依赖</text>
    <line x1="920" y1="760" x2="950" y2="760" stroke="#7C3AED" stroke-width="2" stroke-dasharray="6 4"/>
    <text x="956" y="764" font-size="9" fill="#475569">跨端通信 (HTTP/WS)</text>

    <rect x="720" y="785" width="16" height="10" rx="2" fill="#FECACA" stroke="#DC2626"/>
    <text x="742" y="794" font-size="9" fill="#475569">高危地基</text>
    <rect x="820" y="785" width="16" height="10" rx="2" fill="#FEF3C7" stroke="#F59E0B"/>
    <text x="842" y="794" font-size="9" fill="#475569">编排中枢</text>
    <rect x="920" y="785" width="16" height="10" rx="2" fill="#D1FAE5" stroke="#10B981"/>
    <text x="942" y="794" font-size="9" fill="#475569">AI 评分核心</text>

    <text x="720" y="824" font-size="9" fill="#94A3B8">节点统计：前端 13 个模块 · 后端 24 个模块 · 跨端连接 2 条</text>
    <text x="720" y="840" font-size="9" fill="#94A3B8">依赖热点：prisma(入度10) ▸ services(入度6) ▸ utils(入度4) ▸ api(前端入度4)</text>
  </g>
</svg>
